<?xml version="1.0" encoding="utf-8"?>
<!-- Generator: Adobe Illustrator 16.0.0, SVG Export Plug-In . SVG Version: 6.00 Build 0)  -->
<!DOCTYPE svg PUBLIC "-//W3C//DTD SVG 1.1//EN" "http://www.w3.org/Graphics/SVG/1.1/DTD/svg11.dtd">
<svg version="1.1" id="Layer_1" xmlns="http://www.w3.org/2000/svg" xmlns:xlink="http://www.w3.org/1999/xlink" x="0px" y="0px"
	 width="128.28px" height="46.673px" viewBox="0 0 128.28 46.673" enable-background="new 0 0 128.28 46.673" xml:space="preserve">
<g>
	<path fill="#EC2227" d="M12.898,11.937H0V0h39.992v11.937H27.074v34.736H12.898V11.937z"/>
	<path fill="#EC2227" d="M84.21,0h23.297c7.606,0.128,13.008,2.522,16.203,7.184c3.09,4.618,4.613,9.982,4.57,16.089
		c0.108,15.302-7.742,23.101-23.548,23.401H84.21V0z M98.387,34.737h5.554c2.252,0,4.039-0.417,5.366-1.249
		c1.346-0.832,2.366-1.836,3.062-3.011c0.674-1.217,1.146-2.485,1.42-3.811c0.211-1.345,0.314-2.54,0.314-3.586
		c0-0.832-0.063-1.867-0.189-3.106c-0.21-1.216-0.703-2.432-1.481-3.65c-0.737-1.238-1.863-2.294-3.378-3.17
		c-1.515-0.811-3.557-1.216-6.123-1.216h-4.544V34.737z"/>
	<polygon fill="#EC2227" points="81.471,34.737 56.81,34.737 56.81,28.891 81.471,28.891 81.471,17.781 56.81,17.781 56.81,11.937 
		81.471,11.937 81.471,0 42.634,0 42.634,46.673 81.471,46.673 	"/>
</g>
</svg>
