<?xml version="1.0" encoding="UTF-8" standalone="no"?>
<svg width="275px" height="34px" viewBox="0 0 275 34" version="1.1" xmlns="http://www.w3.org/2000/svg" xmlns:xlink="http://www.w3.org/1999/xlink" xmlns:sketch="http://www.bohemiancoding.com/sketch/ns">
    <!-- Generator: Sketch 3.3.3 (12072) - http://www.bohemiancoding.com/sketch -->
    <title>Imported Layers</title>
    <desc>Created with Sketch.</desc>
    <defs></defs>
    <g id="Page-1" stroke="none" stroke-width="1" fill="none" fill-rule="evenodd" sketch:type="MSPage">
        <g id="Imported-Layers" sketch:type="MSLayerGroup">
            <path d="M23.008,32.607 C31.423,29.121 35.419,19.473 31.933,11.059 C28.448,2.644 18.8,-1.352 10.386,2.134 C1.97,5.619 -2.026,15.267 1.46,23.681 C4.945,32.096 14.593,36.093 23.008,32.607" id="Fill-1" fill="#009AB7" sketch:type="MSShapeGroup"></path>
            <path d="M52.134,24.112 L53.262,23.939 C53.956,26.021 56.212,30.923 60.897,30.923 C64.237,30.923 66.363,28.667 66.363,25.24 C66.363,17.258 53.262,19.254 53.262,10.447 C53.262,6.066 56.559,2.292 62.372,2.292 C65.148,2.292 66.363,3.116 67.708,3.376 L68.488,9.319 L67.404,9.45 C66.666,6.846 65.408,3.767 61.374,3.767 C58.25,3.767 56.602,6.066 56.602,8.669 C56.602,16.521 69.877,13.788 69.877,23.505 C69.877,28.624 65.669,32.405 60.073,32.405 C57.73,32.405 55.431,31.704 53.435,30.793 C53.045,29.665 52.568,26.498 52.134,24.112 L52.134,24.112 Z M79.464,11.879 C77.208,12.66 75.039,13.18 73,13.657 L73,14.438 C75.906,14.786 75.993,14.829 75.993,17.475 L75.993,27.713 C75.993,30.186 75.733,30.403 72.826,30.663 L72.826,31.704 L82.631,31.704 L82.631,30.663 C79.681,30.403 79.464,30.186 79.464,27.713 L79.464,16.564 C80.895,15.393 82.631,14.482 84.409,14.482 C87.446,14.482 88.357,16.521 88.357,19.08 L88.357,27.713 C88.357,30.186 88.097,30.403 85.19,30.663 L85.19,31.704 L94.994,31.704 L94.994,30.663 C92.044,30.403 91.827,30.186 91.827,27.713 L91.827,17.822 C91.827,17.432 91.784,16.911 91.741,16.607 C93.389,15.176 95.037,14.482 96.599,14.482 C99.896,14.482 100.721,16.694 100.721,19.254 L100.721,27.713 C100.721,30.186 100.46,30.403 97.554,30.663 L97.554,31.704 L107.358,31.704 L107.358,30.663 C104.408,30.403 104.191,30.186 104.191,27.713 L104.191,17.822 C104.191,14.352 102.195,11.966 98.595,11.966 C95.862,11.966 93.216,14.135 91.437,15.393 C90.613,13.223 88.617,11.966 86.405,11.966 C83.498,11.966 81.026,14.221 79.464,15.176 L79.464,11.879 L79.464,11.879 Z M115.904,11.879 L115.904,27.713 C115.904,30.186 116.121,30.403 119.071,30.663 L119.071,31.704 L109.267,31.704 L109.267,30.663 C112.173,30.403 112.433,30.186 112.433,27.713 L112.433,17.475 C112.433,14.829 112.347,14.786 109.44,14.438 L109.44,13.657 C111.479,13.18 113.648,12.66 115.904,11.879 L115.904,11.879 Z M114.169,1.511 C115.47,1.511 116.468,2.595 116.468,3.94 C116.468,5.285 115.47,6.326 114.169,6.326 C112.911,6.326 111.87,5.285 111.87,3.94 C111.87,2.595 112.911,1.511 114.169,1.511 L114.169,1.511 Z M121.63,12.53 L120.329,13.744 L120.502,14.221 L123.756,14.221 L123.756,26.889 C123.756,30.446 125.274,32.275 128.137,32.275 C128.441,32.275 129.005,32.145 129.439,31.928 L133.083,30.099 L132.649,29.101 C131.781,29.622 130.827,29.969 130.003,29.969 C128.831,29.969 127.227,29.318 127.227,25.891 L127.227,14.221 L131.998,14.221 C132.345,13.918 132.562,13.484 132.562,13.137 C132.562,12.92 132.475,12.703 132.345,12.53 L127.227,12.53 L127.227,6.803 L126.619,6.803 L123.756,9.753 L123.756,12.53 L121.63,12.53 L121.63,12.53 Z M140.718,0.296 C138.462,1.077 136.293,1.598 134.254,2.075 L134.254,2.855 C137.161,3.203 137.247,3.246 137.247,5.892 L137.247,27.713 C137.247,30.186 136.987,30.403 134.081,30.663 L134.081,31.704 L143.885,31.704 L143.885,30.663 C140.935,30.403 140.718,30.186 140.718,27.713 L140.718,16.434 C141.846,15.176 143.494,14.395 145.273,14.395 C148.526,14.395 149.655,16.477 149.655,19.687 L149.655,27.713 C149.655,30.186 149.394,30.403 146.488,30.663 L146.488,31.704 L156.292,31.704 L156.292,30.663 C153.342,30.403 153.125,30.186 153.125,27.713 L153.125,18.343 C153.125,14.655 151.173,11.966 147.008,11.966 C144.666,11.966 142.236,13.484 140.718,15.089 L140.718,0.296 L140.718,0.296 Z M158.547,25.804 C158.547,27.496 158.808,29.969 159.068,30.619 C159.936,31.314 161.975,32.275 164.23,32.275 C167.571,32.275 171.345,30.272 171.345,26.195 C171.345,23.201 169.219,21.509 165.966,20.165 C164.057,19.384 162.148,18.126 162.148,16.304 C162.148,14.872 163.059,13.31 165.055,13.31 C166.746,13.31 168.135,14.308 169.479,17.258 L170.564,16.998 C170.477,16.217 170,13.744 169.566,12.746 C168.699,12.356 167.441,11.966 165.835,11.966 C162.018,11.966 159.242,14.612 159.242,17.779 C159.242,20.685 161.714,22.204 164.578,23.505 C167.007,24.59 168.005,25.847 168.005,27.626 C168.005,29.795 166.486,30.923 164.881,30.923 C162.278,30.923 160.283,28.103 159.589,25.544 L158.547,25.804 L158.547,25.804 Z M184.576,30.923 C187.352,30.923 189.695,28.754 189.695,22.768 C189.695,17.865 187.569,13.31 183.535,13.31 C180.542,13.31 178.329,16.347 178.329,21.032 C178.329,26.628 180.759,30.923 184.576,30.923 L184.576,30.923 Z M184.099,32.275 C177.852,32.275 174.295,27.236 174.295,22.637 C174.295,15.219 180.021,11.966 184.056,11.966 C189.695,11.966 193.729,16.26 193.729,21.813 C193.729,28.711 188.567,32.275 184.099,32.275 L184.099,32.275 Z M203.49,11.836 C201.235,12.616 199.065,13.137 197.026,13.614 L197.026,14.395 C199.933,14.742 200.02,14.786 200.02,17.432 L200.02,27.713 C200.02,30.186 199.76,30.403 196.853,30.663 L196.853,31.704 L206.657,31.704 L206.657,30.663 C203.707,30.403 203.49,30.186 203.49,27.713 L203.49,16.564 C204.835,15.393 206.527,14.482 208.262,14.482 C211.559,14.482 212.384,16.694 212.384,19.254 L212.384,27.713 C212.384,30.186 212.123,30.403 209.217,30.663 L209.217,31.704 L219.021,31.704 L219.021,30.663 C216.071,30.403 215.854,30.186 215.854,27.713 L215.854,17.865 C215.854,14.395 213.858,11.966 210.214,11.966 C208.089,11.966 205.529,13.657 203.49,15.219 L203.49,11.836 L203.49,11.836 Z M227.61,11.879 L227.61,27.713 C227.61,30.186 227.827,30.403 230.777,30.663 L230.777,31.704 L220.973,31.704 L220.973,30.663 C223.88,30.403 224.14,30.186 224.14,27.713 L224.14,17.475 C224.14,14.829 224.053,14.786 221.146,14.438 L221.146,13.657 C223.185,13.18 225.355,12.66 227.61,11.879 L227.61,11.879 Z M225.875,1.511 C227.177,1.511 228.174,2.595 228.174,3.94 C228.174,5.285 227.177,6.326 225.875,6.326 C224.617,6.326 223.576,5.285 223.576,3.94 C223.576,2.595 224.617,1.511 225.875,1.511 L225.875,1.511 Z M250.429,30.099 L245.96,32.275 C244.442,31.972 243.792,30.489 243.531,29.362 C241.666,30.576 239.28,32.275 238.325,32.275 C235.115,32.275 233.033,29.578 233.033,27.149 C233.033,25.11 234.118,23.635 236.416,22.681 C238.586,21.813 242.186,20.512 243.531,19.601 L243.531,18.082 C243.531,15.349 242.23,13.875 239.887,13.875 C237.718,13.875 236.85,15.696 236.33,17.605 C236.2,18.126 235.766,18.429 235.289,18.429 C234.595,18.429 233.38,17.735 233.38,16.954 C233.38,16.304 233.944,15.783 234.898,15.046 C235.939,14.221 238.586,12.573 241.709,11.966 C245.397,11.966 246.915,14.308 246.915,17.345 L246.915,27.279 C246.915,28.928 247.479,29.665 248.129,29.665 C248.476,29.665 249.214,29.492 250.038,29.101 L250.429,30.099 L250.429,30.099 Z M243.531,28.103 L243.531,21.032 C241.97,21.683 240.451,22.29 239.063,23.028 C237.761,23.722 236.764,24.546 236.764,26.368 C236.764,28.711 238.325,29.795 239.67,29.795 C240.711,29.795 242.317,29.014 243.531,28.103 L243.531,28.103 Z M258.715,11.836 C256.459,12.616 254.29,13.137 252.251,13.614 L252.251,14.395 C255.157,14.742 255.244,14.786 255.244,17.432 L255.244,27.713 C255.244,30.186 254.984,30.403 252.077,30.663 L252.077,31.704 L261.881,31.704 L261.881,30.663 C258.932,30.403 258.715,30.186 258.715,27.713 L258.715,16.564 C260.06,15.393 261.751,14.482 263.486,14.482 C266.784,14.482 267.608,16.694 267.608,19.254 L267.608,27.713 C267.608,30.186 267.347,30.403 264.441,30.663 L264.441,31.704 L274.245,31.704 L274.245,30.663 C271.295,30.403 271.078,30.186 271.078,27.713 L271.078,17.865 C271.078,14.395 269.083,11.966 265.439,11.966 C263.313,11.966 260.754,13.657 258.715,15.219 L258.715,11.836 L258.715,11.836 Z" id="Fill-2" fill="#FFFFFF" sketch:type="MSShapeGroup"></path>
            <path d="M28.187,21.228 C26.953,19.107 25.005,19.083 24.763,19.089 C24.763,19.087 24.764,19.085 24.765,19.082 L32.985,17.369 L24.765,15.657 L24.764,15.654 C24.85,15.578 26.448,14.167 28.844,14.132 C30.653,14.105 32.219,11.891 31.22,10.19 C31.22,10.19 30.922,12.863 27.548,11.972 C25.175,11.345 23.78,12.708 23.615,12.881 C23.614,12.88 23.613,12.879 23.612,12.878 L28.215,5.852 L21.191,10.455 C21.191,10.455 21.188,10.453 21.187,10.453 C21.193,10.35 21.322,8.215 22.996,6.49 C24.256,5.192 23.797,2.519 21.888,2.023 C21.888,2.023 23.568,4.123 20.553,5.879 C18.432,7.114 18.408,9.063 18.414,9.303 C18.412,9.302 18.411,9.302 18.409,9.302 L16.697,1.081 L14.984,9.302 L14.98,9.302 C14.913,9.228 13.492,7.626 13.457,5.222 C13.429,3.413 11.216,1.847 9.515,2.846 C9.515,2.846 12.188,3.143 11.297,6.518 C10.669,8.896 12.039,10.293 12.207,10.452 C12.206,10.453 12.205,10.453 12.204,10.454 L5.179,5.852 L9.782,12.876 C9.781,12.877 9.78,12.878 9.78,12.878 C9.711,12.875 7.554,12.759 5.815,11.071 C4.517,9.811 1.844,10.268 1.348,12.177 C1.348,12.177 3.448,10.497 5.204,13.514 C6.442,15.641 8.398,15.658 8.63,15.652 C8.629,15.654 8.629,15.656 8.629,15.657 L0.408,17.369 L8.629,19.082 L8.629,19.084 C8.575,19.133 6.968,20.573 4.546,20.609 C2.738,20.636 1.172,22.849 2.171,24.551 C2.171,24.551 2.468,21.878 5.842,22.768 C8.226,23.398 9.622,22.022 9.778,21.858 C9.779,21.859 9.78,21.862 9.782,21.864 L5.181,28.888 L12.203,24.286 C12.2,24.358 12.082,26.512 10.395,28.251 C9.135,29.549 9.594,32.221 11.503,32.717 C11.503,32.717 9.823,30.618 12.838,28.862 C14.964,27.624 14.983,25.668 14.978,25.436 C14.979,25.437 14.982,25.437 14.984,25.438 L16.697,33.658 L18.409,25.438 L18.41,25.437 C18.471,25.506 19.898,27.109 19.935,29.519 C19.961,31.328 22.175,32.894 23.876,31.895 C23.876,31.895 21.203,31.598 22.094,28.224 C22.721,25.846 21.353,24.45 21.184,24.289 C21.186,24.287 21.188,24.286 21.191,24.285 L28.215,28.887 L23.612,21.862 C23.709,21.867 25.848,21.993 27.577,23.671 C28.875,24.93 31.547,24.472 32.043,22.563 C32.043,22.563 29.943,24.243 28.187,21.228" id="Fill-3" fill="#FCD133" sketch:type="MSShapeGroup"></path>
        </g>
    </g>
</svg>